<svg xmlns="http://www.w3.org/2000/svg" viewBox="0 0 428 434" width="428" height="434">
  <path d="M203.0,0.0 C219.2,-0.3 232.8,-0.3 250.0,1.0 C267.2,2.3 285.5,4.2 306.0,8.0 C326.5,11.8 355.7,19.0 373.0,24.0 C390.3,29.0 403.8,8.3 410.0,38.0 C416.2,67.7 411.5,166.8 410.0,202.0 C408.5,237.2 405.3,233.8 401.0,249.0 C396.7,264.2 392.0,277.7 384.0,293.0 C376.0,308.3 364.2,326.8 353.0,341.0 C341.8,355.2 327.2,368.7 317.0,378.0 C306.8,387.3 300.3,391.3 292.0,397.0 C283.7,402.7 279.5,405.8 267.0,412.0 C254.5,418.2 227.0,430.3 217.0,434.0 C207.0,437.7 211.7,435.2 207.0,434.0 C202.3,432.8 199.2,431.8 189.0,427.0 C178.8,422.2 159.7,413.3 146.0,405.0 C132.3,396.7 120.2,388.7 107.0,377.0 C93.8,365.3 77.0,347.0 67.0,335.0 C57.0,323.0 52.3,314.0 47.0,305.0 C41.7,296.0 38.8,290.0 35.0,281.0 C31.2,272.0 27.2,262.7 24.0,251.0 C20.8,239.3 17.7,224.3 16.0,211.0 C14.3,197.7 14.2,200.0 14.0,171.0 C13.8,142.0 9.5,61.3 15.0,37.0 C20.5,12.7 31.7,29.5 47.0,25.0 C62.3,20.5 89.3,13.7 107.0,10.0 C124.7,6.3 137.0,4.7 153.0,3.0 C169.0,1.3 186.8,0.3 203.0,0.0 Z M189.0,24.0 C173.8,24.5 162.7,25.5 150.0,27.0 C137.3,28.5 125.7,30.5 113.0,33.0 C100.3,35.5 86.3,38.5 74.0,42.0 C61.7,45.5 44.8,27.8 39.0,54.0 C33.2,80.2 38.3,170.3 39.0,199.0 C39.7,227.7 40.5,215.3 43.0,226.0 C45.5,236.7 49.3,251.2 54.0,263.0 C58.7,274.8 64.2,285.8 71.0,297.0 C77.8,308.2 87.2,320.5 95.0,330.0 C102.8,339.5 108.5,345.7 118.0,354.0 C127.5,362.3 140.7,372.5 152.0,380.0 C163.3,387.5 175.7,394.2 186.0,399.0 C196.3,403.8 202.0,410.7 214.0,409.0 C226.0,407.3 243.8,397.0 258.0,389.0 C272.2,381.0 286.5,371.3 299.0,361.0 C311.5,350.7 322.3,340.3 333.0,327.0 C343.7,313.7 355.8,294.2 363.0,281.0 C370.2,267.8 372.3,260.5 376.0,248.0 C379.7,235.5 383.3,238.3 385.0,206.0 C386.7,173.7 393.0,81.7 386.0,54.0 C379.0,26.3 359.0,44.2 343.0,40.0 C327.0,35.8 307.0,31.7 290.0,29.0 C273.0,26.3 257.8,24.8 241.0,24.0 C224.2,23.2 204.2,23.5 189.0,24.0 Z" fill="#F5F4F0" fill-rule="evenodd"></path>
  <path d="M271.0,59.0 C279.0,58.5 291.3,59.5 299.0,61.0 C306.7,62.5 311.2,64.5 317.0,68.0 C322.8,71.5 329.7,76.8 334.0,82.0 C338.3,87.2 341.3,93.8 343.0,99.0 C344.7,104.2 344.3,110.3 344.0,113.0 C343.7,115.7 343.2,114.8 341.0,115.0 C338.8,115.2 334.7,115.7 331.0,114.0 C327.3,112.3 320.8,104.0 319.0,105.0 C317.2,106.0 321.2,115.8 320.0,120.0 C318.8,124.2 311.3,125.8 312.0,130.0 C312.7,134.2 318.2,139.0 324.0,145.0 C329.8,151.0 348.3,168.5 347.0,166.0 C345.7,163.5 321.2,136.7 316.0,130.0 C310.8,123.3 315.0,127.3 316.0,126.0 C317.0,124.7 321.0,124.5 322.0,122.0 C323.0,119.5 320.2,111.7 322.0,111.0 C323.8,110.3 329.8,117.0 333.0,118.0 C336.2,119.0 339.5,114.0 341.0,117.0 C342.5,120.0 340.0,128.7 342.0,136.0 C344.0,143.3 351.5,155.7 353.0,161.0 C354.5,166.3 353.0,167.2 351.0,168.0 C349.0,168.8 347.7,171.7 341.0,166.0 C334.3,160.3 319.2,140.8 311.0,134.0 C302.8,127.2 296.7,128.7 292.0,125.0 C287.3,121.3 285.2,116.5 283.0,112.0 C280.8,107.5 281.5,100.7 279.0,98.0 C276.5,95.3 271.7,95.7 268.0,96.0 C264.3,96.3 259.8,98.3 257.0,100.0 C254.2,101.7 252.5,103.7 251.0,106.0 C249.5,108.3 248.5,110.2 248.0,114.0 C247.5,117.8 246.3,123.3 248.0,129.0 C249.7,134.7 249.8,139.3 258.0,148.0 C266.2,156.7 287.2,172.0 297.0,181.0 C306.8,190.0 312.2,196.2 317.0,202.0 C321.8,207.8 323.3,211.0 326.0,216.0 C328.7,221.0 331.2,226.3 333.0,232.0 C334.8,237.7 336.3,243.3 337.0,250.0 C337.7,256.7 337.5,266.0 337.0,272.0 C336.5,278.0 335.8,280.5 334.0,286.0 C332.2,291.5 329.2,299.2 326.0,305.0 C322.8,310.8 320.8,314.7 315.0,321.0 C309.2,327.3 298.8,337.2 291.0,343.0 C283.2,348.8 278.7,352.0 268.0,356.0 C257.3,360.0 239.0,365.2 227.0,367.0 C215.0,368.8 204.5,367.7 196.0,367.0 C187.5,366.3 184.3,365.8 176.0,363.0 C167.7,360.2 153.3,353.8 146.0,350.0 C138.7,346.2 135.8,343.5 132.0,340.0 C128.2,336.5 120.0,329.2 123.0,329.0 C126.0,328.8 141.7,336.5 150.0,339.0 C158.3,341.5 165.0,343.2 173.0,344.0 C181.0,344.8 191.2,344.5 198.0,344.0 C204.8,343.5 208.0,342.8 214.0,341.0 C220.0,339.2 227.8,336.2 234.0,333.0 C240.2,329.8 244.7,327.7 251.0,322.0 C257.3,316.3 266.7,306.7 272.0,299.0 C277.3,291.3 280.7,282.2 283.0,276.0 C285.3,269.8 285.5,266.8 286.0,262.0 C286.5,257.2 286.5,251.5 286.0,247.0 C285.5,242.5 285.8,240.7 283.0,235.0 C280.2,229.3 278.3,223.5 269.0,213.0 C259.7,202.5 236.0,182.3 227.0,172.0 C218.0,161.7 217.8,158.3 215.0,151.0 C212.2,143.7 210.3,135.8 210.0,128.0 C209.7,120.2 210.3,111.8 213.0,104.0 C215.7,96.2 222.2,86.3 226.0,81.0 C229.8,75.7 231.8,74.8 236.0,72.0 C240.2,69.2 245.2,66.2 251.0,64.0 C256.8,61.8 263.0,59.5 271.0,59.0 Z M76.0,82.0 C77.7,78.0 79.0,82.2 80.0,84.0 C81.0,85.8 79.3,87.7 82.0,93.0 C84.7,98.3 89.3,107.8 96.0,116.0 C102.7,124.2 110.7,133.0 122.0,142.0 C133.3,151.0 141.5,156.3 164.0,170.0 C186.5,183.7 239.2,213.2 257.0,224.0 C274.8,234.8 268.2,232.0 271.0,235.0 C273.8,238.0 273.5,237.3 274.0,242.0 C274.5,246.7 274.8,256.5 274.0,263.0 C273.2,269.5 271.8,274.7 269.0,281.0 C266.2,287.3 262.3,294.7 257.0,301.0 C251.7,307.3 245.2,313.8 237.0,319.0 C228.8,324.2 218.0,329.3 208.0,332.0 C198.0,334.7 185.5,335.2 177.0,335.0 C168.5,334.8 163.7,333.2 157.0,331.0 C150.3,328.8 144.2,326.8 137.0,322.0 C129.8,317.2 118.2,306.5 114.0,302.0 C109.8,297.5 108.7,295.0 112.0,295.0 C115.3,295.0 126.5,300.5 134.0,302.0 C141.5,303.5 148.5,304.5 157.0,304.0 C165.5,303.5 178.8,300.5 185.0,299.0 C191.2,297.5 192.5,296.0 194.0,295.0 C195.5,294.0 199.8,292.8 194.0,293.0 C188.2,293.2 168.7,296.2 159.0,296.0 C149.3,295.8 143.2,294.2 136.0,292.0 C128.8,289.8 121.5,286.0 116.0,283.0 C110.5,280.0 108.3,279.2 103.0,274.0 C97.7,268.8 89.0,260.3 84.0,252.0 C79.0,243.7 75.2,230.8 73.0,224.0 C70.8,217.2 71.3,216.7 71.0,211.0 C70.7,205.3 70.7,193.8 71.0,190.0 C71.3,186.2 68.7,183.5 73.0,188.0 C77.3,192.5 89.0,209.7 97.0,217.0 C105.0,224.3 111.3,228.0 121.0,232.0 C130.7,236.0 145.2,239.7 155.0,241.0 C164.8,242.3 180.5,241.2 180.0,240.0 C179.5,238.8 160.7,236.7 152.0,234.0 C143.3,231.3 135.7,228.2 128.0,224.0 C120.3,219.8 112.8,215.2 106.0,209.0 C99.2,202.8 92.0,194.3 87.0,187.0 C82.0,179.7 78.8,172.8 76.0,165.0 C73.2,157.2 71.0,149.5 70.0,140.0 C69.0,130.5 69.0,117.7 70.0,108.0 C71.0,98.3 74.3,86.0 76.0,82.0 Z M313.0,92.0 C311.7,92.2 310.5,93.0 310.0,94.0 C309.5,95.0 309.5,96.7 310.0,98.0 C310.5,99.3 311.7,101.3 313.0,102.0 C314.3,102.7 316.8,103.0 318.0,102.0 C319.2,101.0 320.0,97.5 320.0,96.0 C320.0,94.5 319.2,93.7 318.0,93.0 C316.8,92.3 314.3,91.8 313.0,92.0 Z M333.0,127.0 C332.3,127.3 331.7,130.7 332.0,132.0 C332.3,133.3 334.3,135.3 335.0,135.0 C335.7,134.7 336.3,131.3 336.0,130.0 C335.7,128.7 333.7,126.7 333.0,127.0 Z" fill="#F05A1A" fill-rule="evenodd"></path>
</svg>