<svg width="64" height="64" viewBox="0 0 64 64" fill="none" xmlns="http://www.w3.org/2000/svg" role="img" aria-labelledby="title">
  <title id="title">BlackSwan logo</title>
  <rect width="64" height="64" rx="18" fill="#111111"></rect>
  <path d="M43.4 13.8C36.8 14.9 31 19.6 28.8 26.2C27.3 30.8 28 35.7 30.7 39.7C25 39.1 20 35.8 17.2 30.8C15.6 36.5 17.3 42.8 21.8 46.9C27 51.6 34.8 52.3 41 48.7C47.2 45 50.4 37.9 48.8 30.8C47.8 26.3 44.9 22.5 41 20.4C42.5 18.9 43.6 16.5 43.4 13.8Z" fill="#F97316"></path>
  <path d="M39.5 15.8C34.4 18.1 31.1 23 30.9 28.5C30.7 35.4 35.7 41.3 42.5 42.3C37.8 45.9 31 45.7 26.4 41.7C22.8 38.7 21.3 34.2 22.1 29.9C25.1 34.1 30 36.7 35.2 36.7H38.5L36.3 34.2C33.4 30.8 32.8 26 34.7 22.1C35.8 19.7 37.5 17.6 39.5 15.8Z" fill="#0A0A0A"></path>
  <circle cx="43.4" cy="19.6" r="1.6" fill="#0A0A0A"></circle>
  <path d="M45.8 18.4L51.8 16.8L47.4 21.2L45.8 18.4Z" fill="#FB923C"></path>
</svg>